<?xml version="1.0" standalone="no"?>
<!DOCTYPE svg PUBLIC "-//W3C//DTD SVG 20010904//EN"
        "http://www.w3.org/TR/2001/REC-SVG-20010904/DTD/svg10.dtd">
<svg xmlns="http://www.w3.org/2000/svg"
     width="700.000000pt" height="700.000000pt" viewBox="0 0 700.000000 700.000000"
     preserveAspectRatio="xMidYMid meet">
    <metadata>
        Created by potrace 1.11, written by Peter Selinger 2001-2013
    </metadata>
    <g transform="translate(0.000000,700.000000) scale(0.100000,-0.100000)"
       fill="#000000" stroke="none">
        <path d="M3360 5539 c-233 -26 -463 -113 -654 -246 -163 -114 -347 -327 -436
-502 -72 -144 -124 -325 -138 -475 l-7 -80 -35 -8 c-76 -19 -198 -62 -255 -91
-361 -181 -573 -547 -552 -951 14 -267 120 -501 309 -681 132 -127 255 -198
432 -249 77 -23 301 -55 311 -45 2 3 -10 43 -26 89 -131 369 -113 716 54 1044
179 351 503 597 897 682 118 25 362 25 480 0 518 -111 919 -514 1015 -1018 47
-247 19 -541 -69 -733 -14 -32 -24 -60 -22 -63 11 -10 232 20 312 44 177 51
300 122 432 249 140 133 236 301 285 495 30 121 30 361 -1 472 -100 361 -369
636 -724 738 l-93 26 -3 40 c-5 79 -35 231 -64 319 -67 207 -178 386 -338 545
-233 232 -511 364 -842 399 -109 12 -159 12 -268 0z"/>
        <path d="M3364 3695 c-376 -66 -657 -332 -751 -713 -25 -101 -23 -332 5 -433
89 -329 320 -572 639 -672 236 -75 477 -51 713 72 l55 28 263 -261 262 -261
147 148 148 147 -262 262 -261 263 29 55 c116 222 144 453 83 695 -21 84 -102
248 -158 322 -126 166 -327 293 -537 339 -103 22 -276 26 -375 9z m238 -386
c79 -16 189 -74 256 -135 151 -136 219 -332 178 -508 -66 -278 -348 -481 -608
-438 -91 15 -214 74 -285 137 -62 54 -131 157 -163 240 -34 88 -33 243 1 335
99 262 367 421 621 369z"/>
    </g>
</svg>
